<?xml version="1.0" encoding="UTF-8"?>
<svg width="210mm" height="297mm" version="1.1" viewBox="0 0 744.09448819 1052.3622047" xmlns="http://www.w3.org/2000/svg">
 <path d="m346.63 136.19v-0.93821h401.55v330.25h-56.292v-0.93821q0-0.93821 0-1.8764t0-1.8764 0-1.8764 0-1.8764 0-1.8764 0-1.8764 0-1.8764 0-1.8764 0-1.8764 0-1.8764 0-1.8764q0-0.9382 0-1.8764t0-1.8764-0.9383-0.93821q-0.9382 0-0.9382-0.93821t0-1.8764 0-1.8764 0-1.8764 0-1.8764 0-1.8764 0-1.8764 0-1.8764 0-1.8764 0-1.8764 0-1.8764 0-1.8764-0.9382-0.93821-0.9382-0.9382q0-0.93821 0-1.8764t0-1.8764 0-1.8764-0.9382-0.93821-0.9382-0.93821 0-1.8764 0-1.8764 0-1.8764-0.9382-0.93821-0.9382-0.93821 0-1.8764 0-1.8764-0.9382-0.93821-0.9382-0.93821 0-1.8764 0-1.8764 0-1.8764q0-0.93821-0.9383-0.93821-0.9382 0-0.9382-0.93821t0-1.8764 0-1.8764-0.9382-0.93821-0.9382-0.93821 0-1.8764 0-1.8764 0-1.8764 0.9382-0.93821 0.9382-0.93821-0.9382-0.93821-0.9382-0.93821 0-1.8764 0-1.8764 0.9382-0.93821 0.9382-0.93821-0.9382-0.93821-1.8764 0-0.9382-0.93821-0.9382-0.93821-1.8764 0-0.9382-0.93821q0-0.9382-0.9383-0.9382-0.9382 0-1.8764 0t-1.8764 0-1.8764 0-1.8764 0-0.9382-0.93821-0.9382-0.93821q-0.9383 0-1.8765 0t-1.8764 0-0.9382-0.93821-0.9382-0.93821-1.8764 0-0.9382-0.93821-0.9382-0.93821q-0.9383 0-0.9383 0.93821t-0.9382 0.93821-0.9382-0.93821-0.9382-0.93821-1.8764 0-0.9382-0.93821-0.9382-0.93821-1.8764 0q-0.9383 0-1.8765 0t-0.9382-0.93821-0.9382-0.93821-1.8764 0-1.8764 0-0.9382-0.93821-0.9382-0.93821-1.8765 0q-0.9382 0-0.9382-0.93821t-0.9382-0.93821-1.8764 0-0.9382-0.93821-0.9382-0.93821-1.8764 0-1.8765 0q-0.9382 0-1.8764 0t-0.9382-0.93821-0.9382-0.93821-1.8764 0-1.8764 0-0.9382-0.93821-0.9382-0.93821q-0.9383 0-0.9383-0.93821t-0.9382-0.93821-1.8764 0-1.8764 0-1.8764 0-0.9382-0.93821-0.9382-0.93821q-0.9383 0-0.9383-0.93821t-0.9382-0.93821-1.8764 0-0.9382-0.93821q0-0.9382-0.9382-0.9382t-1.8764 0-0.9382-0.93821-0.9382-0.93821q-0.9383 0-1.8765 0t-0.9382-0.93821-0.9382-0.93821-1.1727-0.70366q-0.2346-0.70366-0.9383-0.93821-0.7036-0.23455-0.7036-1.1728t-0.9382-0.93821q-0.93823 0-0.93823-0.93821t-0.93821-0.93821-0.93821-0.93821-0.93821-0.93821-0.93821-0.93821-0.93821-0.93821-0.93821-0.93821-0.93821-0.93821-0.93821-0.93821-0.93821-0.93821-0.93821-0.93821-0.93821-0.93821-0.93821-0.93821 0-1.8764 0-1.8764 0-1.8764 0-1.8764q0-0.93821 0-1.8764t0-1.8764 0-1.8764 0.93821-0.93821 0.93821-0.93821-0.93821-0.93821-0.93821-0.93821 0-1.8764 0-1.8764 0.93821-0.93821 0.93821-0.93821 0-1.8764 0-1.8764 0-1.8764 0-1.8764 0.93821-0.93821 0.93821-0.93821 0.93821-0.93821 0.93821-0.9382q0-0.93821 0-1.8764t0-1.8764 0.93821-0.93821 1.8764 0 0.93821-0.93821 0.93821-0.93821 0.93821-0.93821 0-1.8764 0.93823-0.93821q0.9382 0 1.8764 0t0.9382-0.93821-0.9382-0.93821-0.9382-0.93821 0.9382-0.93821 0.9382-0.93821 0-1.8764 0-1.8764 0-1.8764 0.9382-0.93821 0.9382-0.93821 0-1.8764 0-1.8764q0-0.9382 0.9382-0.9382t0.9382-0.93821 0-1.8764 0-1.8764 0-1.8764 0-1.8764 0-1.8764 0-1.8764 0-1.8764 0-1.8764 0-1.8764 0-1.8764 0-1.8764 0-1.8764 0-1.8764 0-1.8764q0-0.93821 0-1.8764t-0.9382-0.93821-0.9382-0.93821 0.9382-0.93821 1.8765 0q0.9382 0 0.9382-0.93821t0-1.8764-0.9382-0.93821q-0.9383 0-0.9383-0.93821t0-1.8764 0.9383-0.93821q0.9382 0 0.9382-0.93821t0-1.8764 0-1.8764-0.9382-0.93821q-0.9383 0-0.9383-0.93821t0-1.8764 0-1.8764 0-1.8764 0-1.8764q0-0.93821 0-1.8764t-0.9382-0.93821-0.9382-0.93821 0-1.8764-0.9382-0.93821-0.9382-0.93821-0.9382-0.93821-0.9382-0.93821 0-1.8764 0-1.8764-0.9382-0.93821q-0.93823 0-1.1728-0.70366-0.23455-0.70365-0.93821-0.93821-0.70366-0.23455-0.70366-1.1728t0-1.8764-0.93821-0.93821-1.8764 0-0.93821-0.93821 0-1.8764-0.93821-0.93821-0.93821-0.93821-0.93821-0.93821-1.8764 0-1.8764 0q-0.9382 0-1.1728-0.70365-0.23455-0.70366-0.93821-0.93821-0.70365-0.23455-0.70365-1.1728t-0.93821-0.93821-0.93821-0.93821 0-1.8764-0.93821-0.93821-1.8764 0-1.8764 0-0.93821-0.93821-0.93821-0.93821-1.8764 0-0.93821-0.93821-0.93821-0.93821-1.8764 0-1.8764 0-1.8764 0-0.93821-0.93821-0.93821-0.93821-1.8764 0-1.8764 0q-0.9382 0-1.8764 0t-1.8764 0-1.8764 0-1.8764 0-0.93821 0.93821-0.93821 0.93821-1.8764 0-1.8764 0-1.8764 0-1.8764 0-1.8764 0-1.8764 0-0.93821 0.93821-0.93821 0.93821-1.8764 0-1.8764 0-1.8764 0q-0.93821 0-0.93821 0.93821t-0.93821 0.93821-0.93821 0.93821-0.93821 0.93821-0.93821-0.93821-0.93821-0.93821-1.8764 0-1.8764 0-1.8764 0-1.8764 0-0.93821 0.93821-0.93821 0.93821-1.8764 0-0.93821 0.93821-0.93821 0.93821-1.8764 0-0.93821 0.93821-0.93821 0.93821-0.93821 0.9382q0 0.93821-0.93821 0.93821t-1.8764 0q-0.93821 0-0.93821 0.93821t-0.93821 0.93821-0.93821 0.93821-0.93821 0.93821-0.93821 0.93821 0 1.8764-0.93821 0.93821-0.93821 0.93821 0 1.8764-0.93821 0.93821-0.93821 0.93821-0.93821 0.93821-0.93821 0.93821 0 1.8764 0 1.8764 0 1.8764 0 1.8764-0.93821 0.93821-0.93821 0.93821 0 1.8764q0 0.9382 0 1.8764t0 1.8764 0 1.8764 0 1.8764 0 1.8764 0 1.8764 0.93821 0.93821 0.93821 0.93821 0 1.8764 0 1.8764 0 1.8764 0 1.8764 0 1.8764 0 1.8764 0 1.8764q0 0.9382 0.93821 0.9382t0.93821 0.93821 0 1.8764 0 1.8764 0 1.8764 0 1.8764 0 1.8764 0 1.8764-0.93821 0.93821-0.93821 0.93821 0 1.8764 0 1.8764 0 1.8764 0 1.8764 0 1.8764 0 1.8764 0.93821 0.93821 0.93821 0.9382q0 0.93821 0 1.8764t0 1.8764 0 1.8764 0 1.8764 0.93821 0.93821 0.93821 0.93821 0 1.8764 0 1.8764 0.93821 0.93821 0.93821 0.93821-0.93821 0.93821-0.93821 0.93821 0.93821 0.93821 0.93821 0.93821 0 1.8764 0.93821 0.93821 1.8764 0 0.93821 0.93821 0.93821 0.93821q0.9382 0 1.8764 0t0.93821-0.93821 0.93821-0.93821 0.93821 0.93821 0 1.8764 0 1.8764q0 0.9382 0 1.8764t0.93821 0.93821 0.93821 0.93821 0 1.8764 0 1.8764 0 1.8764 0 1.8764 0 1.8764 0.93821 0.93821 0.93821 0.93821 0 1.8764 0 1.8764 0 1.8764 0 1.8764 0 1.8764 0 1.8764q0 0.9382 0 1.8764t0 1.8764 0 1.8764 0 1.8764 0 1.8764 0 1.8764 0 1.8764-0.93821 0.93821-0.93821 0.93821-0.93821 0.93821-0.93821 0.93821-0.93821 0.93821-0.93821 0.93821 0 1.8764-0.93821 0.93821-0.93821 0.93821-0.9382 0.93821q-0.93821 0-0.93821 0.93821t-0.93821 0.93821-0.93821 0.93821-0.93821 0.93821-0.93821 0.9382q0 0.93821-0.93821 0.93821t-0.93821 0.93821-0.93821 0.93821-0.93821 0.93821-0.93821 0.93821-0.93821 0.93821-0.93821 0.93821-0.93821 0.93821-0.93821 0.93821-1.8764 0-0.93821 0.93821-0.93821 0.93821-1.8764 0-0.93821 0.93821-0.93821 0.93821-1.8764 0-1.8764 0-0.93821 0.93821-0.93821 0.93821q-0.9382 0-1.8764 0t-0.93821 0.93821-0.93821 0.93821-1.8764 0-0.93821 0.93821-0.93821 0.93821-1.8764 0-0.93821 0.93821-0.93821 0.93821-1.8764 0-1.8764 0-0.93821 0.93821-0.93821 0.93821-0.93821 0.93821-0.93821 0.93821-1.8764 0-0.93821 0.93821-0.93821 0.93821-1.8764 0-0.93821 0.9382q0 0.93821-0.93821 0.93821-0.9382 0-1.8764 0t-1.8764 0-1.8764 0-0.93821 0.93821-0.93821 0.93821-1.8764 0-1.8764 0-1.8764 0-0.93821 0.93821-0.93821 0.93821-1.8764 0-1.8764 0-0.93821 0.93821-0.93821 0.93821-1.8764 0-1.8764 0-1.8764 0-0.93821 0.93821-0.9382 0.93821q-0.93821 0-0.93821 0.93821t0 1.8764-0.93821 0.93821-0.93821 0.93821 0 1.8764 0 1.8764 0 1.8764 0 1.8764 0 1.8764 0 1.8764 0 1.8764q0 0.9382 0 1.8764t0 1.8764 0 1.8764 0 1.8764 0 1.8764 0 1.8764-0.93821 0.93821-0.93821 0.93821 0 1.8764 0 1.8764 0 1.8764 0 1.8764 0 1.8764-0.93821 0.93821-0.93821 0.93821 0 1.8764q0 0.9382 0 1.8764t-0.93821 0.93821-0.93821 0.93821 0 1.8764 0 1.8764 0 1.8764-0.93821 0.93821-0.93821 0.93821 0 1.8764 0 1.8764 0 1.8764-0.93821 0.93821-0.93821 0.93821 0 1.8764 0 1.8764 0 1.8764 0 1.8764 0 1.8764q0 0.93821 0 1.8764t-0.93821 0.93821-0.93821 0.93821 0 1.8764 0 1.8764 0 1.8764 0 1.8764 0 1.8764 0 1.8764 0 1.8764 0 1.8764-0.93821 0.93821-0.93821 0.93821v0.93821h-50.663v-329.31m146.83 146.36q0 0.4691 0.46911 0.4691 0.4691 0 0.4691-0.4691 0-0.46911-0.4691-0.46911-0.46911 0-0.46911 0.46911m80.686-108.83q0 0.4691 0.4691 0.4691 0.46911 0 0.46911-0.4691 0-0.46911-0.46911-0.46911-0.4691 0-0.4691 0.46911m13.135 11.259q0 0.46911 0.4691 0.46911t0.4691-0.46911q0-0.4691-0.4691-0.4691t-0.4691 0.4691m-0.46913 138.86q0.46913 0.4691 0.93823 0.4691t0.4691-0.4691q0-0.46911-0.4691-0.93821t-0.93823-0.93821q-0.4691-0.4691-0.93821-0.4691-0.4691 0-0.4691 0.4691 0 0.46911 0.4691 0.93821 0.46911 0.4691 0.93821 0.93821m4.2219-1.8764q0 0.46911 0.4691 0.46911t0.4691-0.46911q0-0.4691-0.4691-0.4691t-0.4691 0.4691m0 7.5057q0 0.4691 0.4691 0.4691t0.4691-0.4691q0-0.46911-0.4691-0.46911t-0.4691 0.46911m11.258 5.6293q0 0.4691 0.4691 0.4691t0.4691-0.4691q0-0.46911-0.4691-0.46911t-0.4691 0.46911" fill-opacity="0"/>
 <path d="m574.15 173.72q0-0.46911 0.4691-0.46911 0.46911 0 0.46911 0.46911 0 0.4691-0.46911 0.4691-0.4691 0-0.4691-0.4691" fill="#808080" fill-opacity=".26667"/>
 <path d="m587.28 184.97q0-0.4691 0.4691-0.4691t0.4691 0.4691q0 0.46911-0.4691 0.46911t-0.4691-0.46911" fill="#808080" fill-opacity=".13333"/>
 <path d="m496.74 273.17q0-0.93821 0.93821-0.93821t0.93821 0.93821-0.93821 0.93821-0.93821-0.93821" fill-opacity="0"/>
 <path d="m493.46 282.55q0-0.46911 0.46911-0.46911 0.4691 0 0.4691 0.46911 0 0.4691-0.4691 0.4691-0.46911 0-0.46911-0.4691" fill="#808080" fill-opacity=".13333"/>
 <g transform="matrix(2.3077 0 0 2.2857 -139.05 -128.42)">
  <rect x="90.526" y="109.13" width="260" height="350" fill="#ccc"/>
  <g transform="translate(779.5 53.815)">
   <path d="m-562.13 100.72c3.0333-2.0546 8.2724-0.40716 12.197-0.93821 2.5869 3.1232 8.1515 1.1951 11.07 3.7528 3.2174 2.2757 6.9192 1.8241 8.3979 5.8638 0.92589 5.7658 9.3085 1.4419 9.6166 7.1768 2.8478 2.0111 4.0329 5.8009 7.5057 8.5382-1.1498 5.0357 3.956 6.3857 4.691 10.32 2.6515 2.5393-0.79255 8.7286 1.8764 11.259 4.1005 3.5104-4.3134 7.7379 0.93821 10.32-2.418 4.308-3.6367 3.0282-1.8764 9.1935 0.982 7.2769 2.132 10.1 2.132 10.1 0.92511 4.9263-1.8728 23.791-3.5183 25.741-1.566 5-2.761 4.536-4.1473 9.7301-0.20942 4.6289-5.2615 3.631-6.0237 6.566 0 0-2.1944 0.92167-4.9093 2.9131 0.64534 6.3842-2.2405 12.973-2.2977 18.319 0.15781 4.5999-0.3148 9.3022 0.23456 13.839 3.5363 2.4057 6.0079 5.8761 9.1475 8.6784 3.8241 7.6958 15.846 9.9553 19.702 14.073 17.195 9.7118 39.197 12.877 52.351 18.764 2.9672 2.1154 11.145 5.9398 14.799 6.8814l-0.57145 102.56-256.89-0.57901 0.61628-97.713c23.143-6.7804 60.196-20.14 76.17-34.603 3.5118-2.5364 5.1398-6.1766 7.5057-9.3821 3.8995-2.14 4.176-6.405 3.7528-11.07-0.9475-10.133-0.3044-20.737-2.111-29.038-3.5443-1.5628 0.0734-6.6506-5.3004-5.8638-4.1618 0.10163-7.1462-11.515-9.4764-17.637-1.1566-4.1889-2.3201-6.8656-1.8764-11.259-0.50135-4.4165 0.23365-8.0938 1.8764-11.259-0.63907-3.7966 1.6265-9.3237-1.8764-11.447-0.15786-4.5999 0.3148-9.3022-0.23455-13.839-3.3924-1.9229-0.85537-7.789-1.6419-11.399-0.015-4.1385 3.0961-6.4163 1.8764-11.259 1.6095-3.5787 5.0797-6.0283 5.6293-10.226 2.1468-3.6512 5.9403-4.645 9.1475-6.9906 2.8515-2.4909 6.7076-4.0038 10.366-5.3947 4.8834-1.6303 7.4352 3.5127 10.274-0.23456 2.3347-2.8368 7.776-1.1631 10.555-3.5183 3.1795-0.57908 8.0889 1.1875 10.32-0.93821z" stroke="#000" stroke-width=".81701"/>
   <path d="m-684.49 403.7 1.8755-99.755c17.192-9.9028 40.61-9.8766 69.22-31.366l10.467-9.4408 46.84 36.779 39.666-37.207c33.591 24.504 54.076 28.663 77.413 36.561l-1.6406 103.38z" fill-rule="evenodd" stroke="#000" stroke-width=".43541px"/>
   <path d="m-603.15 262.12 45.321 36.77 39.874-36.793c-0.53481 8.0604 1.0405 19.409 3.1584 48.864 1.9403 26.986-4.0927 70.64-5.9809 93.113l-69.764-0.0738z" fill="#fff"/>
   <path d="m-582.52 403.68 14.983-74.18-15.617-16.529 12.507-16.44c8.8247-1.06 17.177-0.70297 25.312 0.3061l12.004 13.379-13.06 19.284 17.95 74.207z" fill-rule="evenodd" stroke="#000" stroke-width=".43541px"/>
   <path d="m-555.08 296.38 36.484-34.902 3.8579 48.418-12.227 18.928c-0.4613-13.497-16.123-28.832-28.115-32.444z" fill="#fff" fill-rule="evenodd" stroke="#000" stroke-width=".43541px"/>
   <path d="m-559.65 296.58-43.198-34.045 3.3627 46.368 11.868 20.3c0.46131-13.497 15.975-29.011 27.967-32.623z" fill="#fff" fill-rule="evenodd" stroke="#000" stroke-width=".43541px"/>
  </g>
 </g>
</svg>
